<svg xmlns="http://www.w3.org/2000/svg" xmlns:svg="http://www.w3.org/2000/svg" xmlns:xlink="http://www.w3.org/1999/xlink" id="svg3879" width="22" height="22" version="1.1"><defs id="defs3881"><linearGradient id="linearGradient3830" x1="12" x2="12" y1="16" y2="8" gradientUnits="userSpaceOnUse" xlink:href="#linearGradient3805"/><linearGradient id="linearGradient3805"><stop style="stop-color:#fff;stop-opacity:1" id="stop3807" offset="0"/><stop style="stop-color:#fff;stop-opacity:0" id="stop3809" offset="1"/></linearGradient><linearGradient id="linearGradient3814" x1="12.479" x2="12.479" y1="2" y2="22.007" gradientTransform="translate(-1,9)" gradientUnits="userSpaceOnUse" xlink:href="#linearGradient3805"/><linearGradient id="linearGradient3610" x1="86.133" x2="84.639" y1="105.105" y2="20.895" gradientTransform="matrix(0.15623116,0,0,0.15623125,1.0012002,11.157431)" gradientUnits="userSpaceOnUse" xlink:href="#linearGradient5128"/><linearGradient id="linearGradient5128"><stop id="stop5130" offset="0" style="stop-color:#fff;stop-opacity:1"/><stop id="stop5132" offset="1" style="stop-color:#959595;stop-opacity:1"/></linearGradient><linearGradient id="linearGradient3614-2" x1="32.036" x2="32.036" y1="19" y2="47.012" gradientTransform="matrix(0.77777782,0,0,0.77777782,-13.111112,-4.666669)" gradientUnits="userSpaceOnUse" xlink:href="#linearGradient3309-1"/><linearGradient id="linearGradient3309-1" x1="63.999" x2="63.999" y1="3.1" y2="122.899" gradientUnits="userSpaceOnUse"><stop id="stop3311-5" offset="0" style="stop-color:#f6f6f6;stop-opacity:1"/><stop id="stop3313-0" offset="1" style="stop-color:#d2d2d2;stop-opacity:1"/></linearGradient><linearGradient id="linearGradient3616-9" x1="25.923" x2="25.923" y1="19" y2="47.045" gradientTransform="matrix(0.77777782,0,0,0.77777782,-13.111112,-4.666669)" gradientUnits="userSpaceOnUse" xlink:href="#linearGradient3397-0"/><linearGradient id="linearGradient3397-0"><stop id="stop3399-4" offset="0" style="stop-color:#aaa;stop-opacity:1"/><stop id="stop3401-0" offset="1" style="stop-color:#8c8c8c;stop-opacity:1"/></linearGradient></defs><metadata id="metadata3884"/><g id="layer1" transform="translate(0,-10)"><path style="color:#000;fill:url(#linearGradient3614-2);fill-opacity:1;fill-rule:nonzero;stroke:url(#linearGradient3616-9);stroke-width:1;stroke-linecap:butt;stroke-linejoin:round;stroke-miterlimit:4;stroke-opacity:1;stroke-dasharray:none;stroke-dashoffset:0;marker:none;visibility:visible;display:block;overflow:visible;enable-background:accumulate" id="rect3623" d="m 9.5,10.5 c -0.554,0 -1,0.446 -1,1 l 0,1.375 C 7.9926705,13.030783 7.4932312,13.225474 7.03125,13.46875 L 6.0625,12.5 C 5.6707628,12.108263 5.0167372,12.108263 4.625,12.5 L 2.5,14.625 c -0.3917372,0.391737 -0.3917372,1.045763 0,1.4375 l 0.96875,0.96875 C 3.2254741,17.493231 3.0307828,17.99267 2.875,18.5 l -1.375,0 c -0.554,0 -1,0.446 -1,1 l 0,3 c 0,0.554 0.446,1 1,1 l 1.375,0 c 0.1557828,0.507329 0.3504741,1.006769 0.59375,1.46875 L 2.5,25.9375 c -0.3917372,0.391737 -0.3917372,1.045763 0,1.4375 L 4.625,29.5 c 0.3917372,0.391737 1.0457628,0.391737 1.4375,0 L 7.03125,28.53125 C 7.4932312,28.774526 7.9926705,28.969217 8.5,29.125 l 0,1.375 c 0,0.554 0.446,1 1,1 l 3,0 c 0.554,0 1,-0.446 1,-1 l 0,-1.375 c 0.507329,-0.155783 1.006769,-0.350474 1.46875,-0.59375 L 15.9375,29.5 c 0.391737,0.391737 1.045763,0.391737 1.4375,0 L 19.5,27.375 c 0.391737,-0.391737 0.391737,-1.045763 0,-1.4375 L 18.53125,24.96875 C 18.774526,24.506769 18.969217,24.007329 19.125,23.5 l 1.375,0 c 0.554,0 1,-0.446 1,-1 l 0,-3 c 0,-0.554 -0.446,-1 -1,-1 l -1.375,0 C 18.969217,17.99267 18.774526,17.493231 18.53125,17.03125 L 19.5,16.0625 c 0.391737,-0.391737 0.391737,-1.045763 0,-1.4375 L 17.375,12.5 c -0.391737,-0.391737 -1.045763,-0.391737 -1.4375,0 l -0.96875,0.96875 C 14.506769,13.225474 14.007329,13.030783 13.5,12.875 l 0,-1.375 c 0,-0.554 -0.446,-1 -1,-1 l -3,0 z m 1.5,8 c 1.380712,0 2.5,1.119288 2.5,2.5 0,1.380712 -1.119288,2.5 -2.5,2.5 -1.380712,0 -2.5,-1.119288 -2.5,-2.5 0,-1.380712 1.119288,-2.5 2.5,-2.5 z"/><path style="opacity:.05;fill:#000;fill-opacity:1;stroke:none" id="path3315" d="m 11,15 c -3.310303,0 -6,2.689698 -6,6 0,3.310302 2.689697,6 6,6 3.310301,0 6,-2.689698 6,-6 0,-3.310302 -2.689699,-6 -6,-6 z m 0,3 c 1.656854,0 3,1.343146 3,3 0,1.656854 -1.343146,3 -3,3 -1.656854,0 -3,-1.343146 -3,-3 0,-1.656854 1.343146,-3 3,-3 z"/><path style="fill:none;stroke:url(#linearGradient3610);stroke-width:1;stroke-miterlimit:4;stroke-dasharray:none" id="path28" d="m 11,14.499999 c -3.5841018,0 -6.5,2.9159 -6.5,6.499999 C 4.5,24.5841 7.4158982,27.5 11,27.5 c 3.584101,0 6.5,-2.9159 6.5,-6.500002 0,-3.584099 -2.915899,-6.499999 -6.5,-6.499999 z"/><path style="opacity:.8;color:#000;fill:none;stroke:url(#linearGradient3814);stroke-width:1;stroke-linecap:butt;stroke-linejoin:round;stroke-miterlimit:4;stroke-opacity:1;stroke-dasharray:none;stroke-dashoffset:0;marker:none;visibility:visible;display:block;overflow:visible;enable-background:accumulate" id="path3799" d="m 9.5,11.46875 c -0.07417,0.388719 -0.0095,0.901108 -0.03125,1.336433 0.06469,0.778079 -0.7702767,1.052854 -1.3682852,1.21661 -0.5470235,0.311236 -1.3489947,0.671898 -1.8369673,0.0542 C 5.9673317,13.779832 5.6711658,13.483666 5.375,13.1875 4.9432707,13.474172 4.5902425,13.950845 4.1889654,14.311035 3.8695012,14.671637 3.4334278,14.983938 3.1875,15.375 c 0.4070204,0.490131 1.0485159,0.837591 1.225798,1.476969 -0.024664,0.798464 -0.5401599,1.529218 -0.8123879,2.267025 -0.5018209,0.56435 -1.3150413,0.280668 -1.9743456,0.349756 -0.3445673,-0.01288 -0.070329,0.586347 -0.1578145,0.825709 0.00121,0.744981 -0.0024,1.490108 0.00179,2.234998 0.6455598,0.06419 1.3569859,-0.150581 1.9454937,0.179668 0.5556121,0.579212 0.6756354,1.474124 1.0067725,2.188766 0.04177,0.75274 -0.7323134,1.126431 -1.1493366,1.641136 -0.2173877,0.272406 0.385277,0.504146 0.5159207,0.750367 0.5077022,0.507702 1.0154043,1.015404 1.5231065,1.523106 0.5224633,-0.304869 0.8397278,-0.98896 1.4454346,-1.204942 0.8151392,-0.106648 1.5136871,0.546448 2.2838276,0.733976 0.650694,0.452082 0.363529,1.310427 0.426988,1.975154 -0.08851,0.418476 0.527859,0.12987 0.768962,0.214562 0.763896,-0.0012 1.527939,0.0024 2.291745,-0.0018 0.06419,-0.64556 -0.150581,-1.356986 0.179668,-1.945494 0.579212,-0.555612 1.474124,-0.675635 2.188766,-1.006772 0.75274,-0.04177 1.126431,0.732313 1.641136,1.149336 0.272406,0.217388 0.504146,-0.385277 0.750367,-0.515921 0.507702,-0.507702 1.015404,-1.015404 1.523106,-1.523106 -0.304869,-0.522463 -0.98896,-0.839728 -1.204942,-1.445435 -0.106648,-0.815139 0.546448,-1.513687 0.733976,-2.283827 0.452082,-0.650694 1.310427,-0.363529 1.975154,-0.426988 0.418476,0.08851 0.12987,-0.527859 0.214562,-0.768962 -0.0012,-0.763896 0.0024,-1.527939 -0.0018,-2.291745 -0.64556,-0.06419 -1.356986,0.150581 -1.945494,-0.179668 -0.555602,-0.579205 -0.675625,-1.474117 -1.006762,-2.188759 -0.04177,-0.75274 0.732313,-1.126431 1.149336,-1.641136 0.217388,-0.272406 -0.385277,-0.504146 -0.515921,-0.750366 -0.507702,-0.507703 -1.015404,-1.015405 -1.523106,-1.523107 -0.522463,0.304869 -0.839728,0.98896 -1.445435,1.204942 -0.815139,0.106648 -1.513687,-0.546448 -2.283827,-0.733976 -0.650694,-0.452082 -0.363529,-1.310427 -0.426988,-1.975154 0.08851,-0.418476 -0.527859,-0.12987 -0.768962,-0.214562 -0.754096,0 -1.508192,0 -2.262288,0 z"/><path style="opacity:.4;color:#000;fill:none;stroke:url(#linearGradient3830);stroke-width:.98852974;stroke-opacity:1;marker:none;visibility:visible;display:block;overflow:visible;enable-background:accumulate" id="path3822" d="m 15.459854,12 a 3.4598541,3.4598541 0 1 1 -6.9197081,0 3.4598541,3.4598541 0 1 1 6.9197081,0 z" transform="matrix(1.0116033,0,0,1.0116033,-1.1392398,8.8607606)"/></g></svg>